<svg width="100" height="100" viewBox="0 0 100 100" fill="none" xmlns="http://www.w3.org/2000/svg">
<g clip-path="url(#clip0_58_130)">
<path d="M31.4315 74.3191C31.4315 83.6175 38.9694 91.1554 48.2678 91.1554C57.5663 91.1554 65.1042 83.6175 65.1042 74.3191C65.1042 65.0206 57.5663 57.4827 48.2678 57.4827C38.9694 57.4827 31.4315 65.0206 31.4315 74.3191Z" fill="black" fill-opacity="0.2"/>
<path fill-rule="evenodd" clip-rule="evenodd" d="M60.6206 57.9154L59.8649 59.6189C59.6401 60.1256 59.7143 60.7151 60.0575 61.1503C60.4661 61.6683 61.1673 61.8571 61.7801 61.6128C62.3047 61.4038 62.8226 61.1959 63.3337 60.9892C63.9785 61.9455 64.5211 62.9765 64.9458 64.0665C63.9628 64.462 62.9534 64.866 61.9136 65.2818C61.5338 65.4336 61.2802 65.8032 61.2802 66.2122V71.3565C61.2802 71.6712 61.4283 71.9675 61.68 72.1564L65.2003 74.7979C63.106 81.0382 57.2104 85.534 50.2647 85.534C41.5658 85.534 34.514 78.4821 34.514 69.7833C34.514 61.0844 41.5658 54.0326 50.2647 54.0326C54.2294 54.0326 57.8519 55.4974 60.6206 57.9154ZM65.2003 74.7979L67.0579 76.1918C67.6712 76.652 68.489 75.978 68.1544 75.2882C67.8907 74.7445 68.3651 74.1319 68.9612 74.2308C72.0428 74.7424 74.1234 74.6656 76.6008 73.8015C77.2581 73.5722 77.2301 72.6731 76.5753 72.4368C75.7235 72.1295 76.0115 70.7775 76.9165 70.8064C87.2826 71.1382 92.2791 69.276 95.259 63.031C95.6428 62.2266 94.7953 61.4419 93.9756 61.7918C89.6938 63.6189 86.0789 64.4382 81.128 64.5921C79.9802 64.6278 79.802 63.0594 80.9024 62.7306C91.7022 59.5034 96.5716 56.0529 98.8945 48.0597C99.1492 47.1832 98.1558 46.5285 97.4091 47.0535C85.358 55.5272 77.1998 59.136 64.9458 64.0665C65.6364 65.8387 66.0154 67.7667 66.0154 69.7833C66.0154 71.5365 65.7289 73.2228 65.2003 74.7979ZM60.6206 57.9154L61.9569 54.9032C62.7912 53.0225 64.1884 51.4472 65.9365 50.3621C77.2954 43.3114 84.5025 37.526 93.8191 27.7612C95.8378 25.6453 99.3997 26.7931 99.2792 29.715C98.9807 36.9508 96.0651 42.644 88.2515 48.3277C82.6955 52.3692 74.6629 56.406 63.3337 60.9892C62.5655 59.8499 61.6523 58.8165 60.6206 57.9154Z" fill="#61D0FF"/>
<path d="M59.8649 59.6189L59.4079 59.4161L59.4079 59.4161L59.8649 59.6189ZM60.0575 61.1503L60.4501 60.8407L60.4501 60.8407L60.0575 61.1503ZM61.7801 61.6128L61.9652 62.0773L61.9652 62.0773L61.7801 61.6128ZM61.9136 65.2818L62.0992 65.746L62.0992 65.746L61.9136 65.2818ZM61.68 72.1564L61.9801 71.7565L61.9801 71.7565L61.68 72.1564ZM67.0579 76.1918L66.7578 76.5918L66.7578 76.5918L67.0579 76.1918ZM68.1544 75.2882L68.6043 75.07L68.6043 75.07L68.1544 75.2882ZM68.9612 74.2308L69.0431 73.7376L69.0431 73.7376L68.9612 74.2308ZM76.6008 73.8015L76.7655 74.2736L76.7655 74.2736L76.6008 73.8015ZM76.5753 72.4368L76.4056 72.9072L76.4056 72.9072L76.5753 72.4368ZM76.9165 70.8064L76.9325 70.3067L76.9325 70.3067L76.9165 70.8064ZM95.259 63.031L95.7102 63.2463L95.7102 63.2463L95.259 63.031ZM93.9756 61.7918L94.1718 62.2516L94.1718 62.2516L93.9756 61.7918ZM81.128 64.5921L81.1125 64.0924L81.1125 64.0924L81.128 64.5921ZM80.9024 62.7306L81.0455 63.2097L81.0455 63.2097L80.9024 62.7306ZM98.8945 48.0597L99.3746 48.1993L99.3746 48.1993L98.8945 48.0597ZM97.4091 47.0535L97.1215 46.6445L97.1215 46.6445L97.4091 47.0535ZM61.9569 54.9032L62.4139 55.1059L62.4139 55.1059L61.9569 54.9032ZM65.9365 50.3621L65.6728 49.9373L65.6728 49.9373L65.9365 50.3621ZM93.8191 27.7612L94.1808 28.1063L94.1808 28.1063L93.8191 27.7612ZM99.2792 29.715L98.7796 29.6944L98.7796 29.6944L99.2792 29.715ZM88.2515 48.3277L88.5456 48.7321L88.5456 48.7321L88.2515 48.3277ZM60.3219 59.8216L61.0776 58.1182L60.1635 57.7126L59.4079 59.4161L60.3219 59.8216ZM60.4501 60.8407C60.2217 60.5511 60.1724 60.1588 60.3219 59.8216L59.4079 59.4161C59.1079 60.0923 59.2068 60.8791 59.6649 61.4599L60.4501 60.8407ZM61.5951 61.1484C61.1882 61.3105 60.7219 61.1853 60.4501 60.8407L59.6649 61.4599C60.2102 62.1514 61.1463 62.4037 61.9652 62.0773L61.5951 61.1484ZM63.1462 60.5256C62.6359 60.7321 62.1189 60.9396 61.5951 61.1484L61.9652 62.0773C62.4906 61.868 63.0092 61.6598 63.5212 61.4527L63.1462 60.5256ZM62.9191 61.2687C63.5435 62.1948 64.0688 63.1929 64.4799 64.248L65.4117 63.8849C64.9734 62.7601 64.4135 61.6963 63.7482 60.7096L62.9191 61.2687ZM62.0992 65.746C63.1391 65.3303 64.1489 64.9261 65.1325 64.5303L64.7592 63.6026C63.7767 63.9979 62.7677 64.4018 61.7279 64.8175L62.0992 65.746ZM61.7802 66.2122C61.7802 66.0105 61.9066 65.823 62.0992 65.746L61.7279 64.8175C61.1609 65.0442 60.7802 65.5959 60.7802 66.2122H61.7802ZM61.7802 71.3565V66.2122H60.7802V71.3565H61.7802ZM61.9801 71.7565C61.8542 71.662 61.7802 71.5139 61.7802 71.3565H60.7802C60.7802 71.8285 61.0023 72.273 61.3799 72.5563L61.9801 71.7565ZM65.5004 74.398L61.9801 71.7565L61.3799 72.5563L64.9002 75.1978L65.5004 74.398ZM64.7263 74.6388C62.6982 80.6816 56.9891 85.034 50.2647 85.034V86.034C57.4316 86.034 63.5137 81.3948 65.6743 74.957L64.7263 74.6388ZM50.2647 85.034C41.842 85.034 35.014 78.206 35.014 69.7833H34.014C34.014 78.7583 41.2897 86.034 50.2647 86.034V85.034ZM35.014 69.7833C35.014 61.3606 41.842 54.5326 50.2647 54.5326V53.5326C41.2897 53.5326 34.014 60.8083 34.014 69.7833H35.014ZM50.2647 54.5326C54.1039 54.5326 57.6106 55.9505 60.2917 58.292L60.9495 57.5388C58.0932 55.0443 54.3549 53.5326 50.2647 53.5326V54.5326ZM67.358 75.7919L65.5004 74.398L64.9002 75.1978L66.7578 76.5918L67.358 75.7919ZM67.7045 75.5063C67.8102 75.7243 67.5518 75.9373 67.358 75.7919L66.7578 76.5918C67.7905 77.3667 69.1677 76.2317 68.6043 75.07L67.7045 75.5063ZM69.0431 73.7376C68.0647 73.5752 67.2559 74.5813 67.7045 75.5063L68.6043 75.07C68.5256 74.9077 68.6655 74.6886 68.8793 74.7241L69.0431 73.7376ZM76.4362 73.3294C74.0582 74.1588 72.0663 74.2395 69.0431 73.7376L68.8793 74.7241C72.0193 75.2454 74.1886 75.1724 76.7655 74.2736L76.4362 73.3294ZM76.4056 72.9072C76.5274 72.9511 76.5781 73.0445 76.5802 73.1336C76.5813 73.1793 76.569 73.2189 76.5493 73.2488C76.5314 73.2758 76.4995 73.3073 76.4362 73.3294L76.7655 74.2736C77.3153 74.0818 77.5914 73.5922 77.58 73.1099C77.5687 72.6331 77.2779 72.1588 76.745 71.9665L76.4056 72.9072ZM76.9325 70.3067C76.1796 70.2826 75.7135 70.8442 75.5979 71.3923C75.4818 71.9427 75.6862 72.6476 76.4056 72.9072L76.745 71.9665C76.6602 71.9359 76.6192 71.889 76.5956 71.8379C76.568 71.7784 76.5564 71.6933 76.5763 71.5987C76.618 71.4013 76.7483 71.3013 76.9005 71.3062L76.9325 70.3067ZM94.8077 62.8157C93.3628 65.8438 91.4532 67.7722 88.6667 68.9229C85.85 70.086 82.0966 70.4719 76.9325 70.3067L76.9005 71.3062C82.1025 71.4726 86.0303 71.0934 89.0484 69.8471C92.0967 68.5884 94.1753 66.4632 95.7102 63.2463L94.8077 62.8157ZM94.1718 62.2516C94.3873 62.1597 94.5937 62.2171 94.7243 62.3411C94.8489 62.4595 94.8976 62.6273 94.8077 62.8157L95.7102 63.2463C96.0042 62.6302 95.821 62.0036 95.413 61.616C95.0108 61.234 94.3836 61.074 93.7793 61.3319L94.1718 62.2516ZM81.1436 65.0919C86.1561 64.9361 89.8323 64.1034 94.1718 62.2516L93.7793 61.3319C89.5553 63.1344 86.0017 63.9404 81.1125 64.0924L81.1436 65.0919ZM80.7592 62.2516C79.9563 62.4915 79.5992 63.2079 79.6755 63.8565C79.7532 64.5161 80.2841 65.1186 81.1436 65.0919L81.1125 64.0924C80.9466 64.0975 80.8494 64.0469 80.7912 63.9936C80.7275 63.9354 80.6813 63.8469 80.6687 63.7396C80.6441 63.5308 80.7481 63.2986 81.0455 63.2097L80.7592 62.2516ZM98.4144 47.9202C97.2767 51.835 95.5296 54.6006 92.7667 56.7906C89.9852 58.9954 86.1423 60.643 80.7592 62.2516L81.0455 63.2097C86.4623 61.591 90.454 59.8998 93.3879 57.5743C96.3404 55.2339 98.1894 52.2776 99.3746 48.1993L98.4144 47.9202ZM97.6967 47.4625C97.8893 47.3271 98.0989 47.3459 98.249 47.4464C98.3945 47.544 98.4755 47.7098 98.4144 47.9202L99.3746 48.1993C99.5682 47.5332 99.2798 46.9334 98.8057 46.6157C98.336 46.301 97.6756 46.2549 97.1215 46.6445L97.6967 47.4625ZM65.1325 64.5303C77.4026 59.5934 85.6007 55.9678 97.6967 47.4625L97.1215 46.6445C85.1153 55.0867 76.997 58.6786 64.7592 63.6026L65.1325 64.5303ZM64.4799 64.248C65.1483 65.9633 65.5154 67.8298 65.5154 69.7833H66.5154C66.5154 67.7036 66.1245 65.7141 65.4117 63.8849L64.4799 64.248ZM65.5154 69.7833C65.5154 71.4817 65.2379 73.1143 64.7263 74.6388L65.6743 74.957C66.2199 73.3312 66.5154 71.5913 66.5154 69.7833H65.5154ZM61.0776 58.1182L62.4139 55.1059L61.4999 54.7004L60.1635 57.7126L61.0776 58.1182ZM62.4139 55.1059C63.2062 53.32 64.5346 51.8208 66.2001 50.7869L65.6728 49.9373C63.8423 51.0735 62.3762 52.725 61.4999 54.7004L62.4139 55.1059ZM66.2001 50.7869C77.5939 43.7146 84.8342 37.9027 94.1808 28.1063L93.4573 27.416C84.1709 37.1493 76.9969 42.9082 65.6728 49.9373L66.2001 50.7869ZM94.1808 28.1063C95.0506 27.1947 96.2391 26.9953 97.1888 27.3218C98.1262 27.644 98.83 28.4735 98.7796 29.6944L99.7788 29.7356C99.8489 28.0346 98.832 26.8292 97.5139 26.3761C96.208 25.9272 94.6062 26.2118 93.4573 27.416L94.1808 28.1063ZM98.7796 29.6944C98.6331 33.2466 97.8461 36.3977 96.1498 39.3546C94.4513 42.3155 91.8246 45.1103 87.9574 47.9234L88.5456 48.7321C92.492 45.8614 95.23 42.9678 97.0172 39.8522C98.8068 36.7326 99.6268 33.4192 99.7788 29.7356L98.7796 29.6944ZM87.9574 47.9234C82.4516 51.9283 74.4646 55.9469 63.1462 60.5256L63.5212 61.4527C74.8612 56.8651 82.9393 52.8102 88.5456 48.7321L87.9574 47.9234ZM60.2917 58.292C61.2909 59.1646 62.1753 60.1654 62.9191 61.2687L63.7482 60.7096C62.9558 59.5343 62.0138 58.4683 60.9495 57.5388L60.2917 58.292Z" fill="#61D0FF"/>
<path fill-rule="evenodd" clip-rule="evenodd" d="M39.9906 58.1709L40.7463 59.8744C40.9711 60.3811 40.8969 60.9706 40.5536 61.4058C40.1451 61.9239 39.4439 62.1126 38.831 61.8684C38.3064 61.6593 37.7886 61.4515 37.2775 61.2447C36.6327 62.2011 36.0901 63.2321 35.6654 64.322C36.6484 64.7175 37.6578 65.1216 38.6976 65.5373C39.0774 65.6891 39.331 66.0587 39.331 66.4677V71.6121C39.331 71.9267 39.1829 72.2231 38.9312 72.4119L35.4109 75.0535C37.5052 81.2937 43.4008 85.7895 50.3465 85.7895C59.0453 85.7895 66.0972 78.7377 66.0972 70.0388C66.0972 61.34 59.0453 54.2881 50.3465 54.2881C46.3818 54.2881 42.7593 55.753 39.9906 58.1709ZM35.4109 75.0535L33.5532 76.4474C32.94 76.9075 32.1222 76.2335 32.4568 75.5437C32.7204 75 32.2461 74.3874 31.65 74.4864C28.5684 74.998 26.4878 74.9211 24.0103 74.057C23.3531 73.8278 23.3811 72.9286 24.0359 72.6924C24.8877 72.385 24.5997 71.033 23.6947 71.062C13.3286 71.3937 8.33207 69.5316 5.35221 63.2865C4.96838 62.4821 5.81583 61.6975 6.6356 62.0473C10.9174 63.8745 14.5323 64.6937 19.4832 64.8477C20.631 64.8834 20.8092 63.315 19.7088 62.9862C8.90894 59.7589 4.03959 56.3085 1.71669 48.3153C1.46198 47.4388 2.4554 46.784 3.20203 47.309C15.2532 55.7828 23.4114 59.3915 35.6654 64.322C34.9748 66.0942 34.5958 68.0223 34.5958 70.0388C34.5958 71.792 34.8822 73.4783 35.4109 75.0535ZM39.9906 58.1709L38.6543 55.1587C37.82 53.2781 36.4227 51.7027 34.6747 50.6177C23.3158 43.5669 16.1086 37.7815 6.79212 28.0167C4.7734 25.9009 1.21145 27.0486 1.33199 29.9705C1.63047 37.2063 4.54603 42.8995 12.3597 48.5833C17.9157 52.6248 25.9483 56.6615 37.2775 61.2447C38.0457 60.1054 38.9588 59.072 39.9906 58.1709Z" fill="#61D0FF"/>
<path d="M40.7463 59.8744L41.2033 59.6716L41.2033 59.6716L40.7463 59.8744ZM40.5536 61.4058L40.161 61.0962L40.1611 61.0962L40.5536 61.4058ZM38.831 61.8684L39.0161 61.4039L39.0161 61.4039L38.831 61.8684ZM38.6976 65.5373L38.512 66.0016L38.512 66.0016L38.6976 65.5373ZM38.9312 72.4119L38.6311 72.012L38.6311 72.012L38.9312 72.4119ZM33.5532 76.4474L33.8533 76.8473L33.8533 76.8473L33.5532 76.4474ZM32.4568 75.5437L32.0069 75.3255L32.0069 75.3255L32.4568 75.5437ZM31.65 74.4864L31.5681 73.9931L31.5681 73.9931L31.65 74.4864ZM24.0103 74.057L23.8457 74.5291L23.8457 74.5291L24.0103 74.057ZM24.0359 72.6924L24.2056 73.1627L24.2056 73.1627L24.0359 72.6924ZM23.6947 71.062L23.6787 70.5622L23.6787 70.5622L23.6947 71.062ZM5.35221 63.2865L5.80347 63.0712L5.80347 63.0712L5.35221 63.2865ZM6.6356 62.0473L6.83185 61.5874L6.83185 61.5874L6.6356 62.0473ZM19.4832 64.8477L19.4987 64.3479L19.4987 64.3479L19.4832 64.8477ZM19.7088 62.9862L19.5657 63.4652L19.5657 63.4652L19.7088 62.9862ZM1.71669 48.3153L2.19683 48.1757L2.19683 48.1757L1.71669 48.3153ZM3.20203 47.309L3.48963 46.9L3.48963 46.9L3.20203 47.309ZM38.6543 55.1587L38.1972 55.3615L38.1972 55.3615L38.6543 55.1587ZM34.6747 50.6177L34.9384 50.1929L34.9384 50.1929L34.6747 50.6177ZM6.79212 28.0167L7.15388 27.6716L7.15388 27.6716L6.79212 28.0167ZM1.33199 29.9705L1.83156 29.9499L1.83156 29.9499L1.33199 29.9705ZM12.3597 48.5833L12.6538 48.1789L12.6538 48.1789L12.3597 48.5833ZM40.2892 60.0772L39.5335 58.3737L40.4476 57.9682L41.2033 59.6716L40.2892 60.0772ZM40.1611 61.0962C40.3895 60.8066 40.4388 60.4143 40.2892 60.0771L41.2033 59.6716C41.5033 60.3479 41.4044 61.1346 40.9462 61.7155L40.1611 61.0962ZM39.0161 61.4039C39.4229 61.566 39.8893 61.4408 40.161 61.0962L40.9462 61.7155C40.4009 62.4069 39.4649 62.6592 38.646 62.3329L39.0161 61.4039ZM37.465 60.7812C37.9753 60.9876 38.4923 61.1952 39.0161 61.4039L38.646 62.3329C38.1206 62.1235 37.6019 61.9153 37.09 61.7082L37.465 60.7812ZM37.6921 61.5242C37.0677 62.4503 36.5424 63.4485 36.1312 64.5036L35.1995 64.1405C35.6378 63.0157 36.1977 61.9519 36.8629 60.9652L37.6921 61.5242ZM38.512 66.0016C37.4721 65.5858 36.4623 65.1816 35.4787 64.7859L35.852 63.8582C36.8345 64.2535 37.8435 64.6573 38.8832 65.073L38.512 66.0016ZM38.831 66.4677C38.831 66.266 38.7046 66.0786 38.512 66.0016L38.8832 65.073C39.4503 65.2997 39.831 65.8514 39.831 66.4677H38.831ZM38.831 71.6121V66.4677H39.831V71.6121H38.831ZM38.6311 72.012C38.757 71.9176 38.831 71.7694 38.831 71.6121H39.831C39.831 72.0841 39.6088 72.5286 39.2313 72.8119L38.6311 72.012ZM35.1108 74.6535L38.6311 72.012L39.2313 72.8119L35.711 75.4534L35.1108 74.6535ZM35.8849 74.8944C37.9129 80.9371 43.6221 85.2895 50.3465 85.2895V86.2895C43.1796 86.2895 37.0975 81.6503 34.9369 75.2125L35.8849 74.8944ZM50.3465 85.2895C58.7692 85.2895 65.5972 78.4615 65.5972 70.0388H66.5972C66.5972 79.0138 59.3215 86.2895 50.3465 86.2895V85.2895ZM65.5972 70.0388C65.5972 61.6161 58.7692 54.7881 50.3465 54.7881V53.7881C59.3215 53.7881 66.5972 61.0638 66.5972 70.0388H65.5972ZM50.3465 54.7881C46.5073 54.7881 43.0006 56.2061 40.3195 58.5475L39.6617 57.7943C42.518 55.2999 46.2563 53.7881 50.3465 53.7881V54.7881ZM33.2531 76.0474L35.1108 74.6535L35.711 75.4534L33.8533 76.8473L33.2531 76.0474ZM32.9067 75.7619C32.8009 75.9799 33.0594 76.1929 33.2531 76.0474L33.8533 76.8473C32.8207 77.6222 31.4435 76.4872 32.0069 75.3255L32.9067 75.7619ZM31.5681 73.9931C32.5465 73.8307 33.3553 74.8368 32.9067 75.7619L32.0069 75.3255C32.0856 75.1632 31.9457 74.9441 31.7319 74.9796L31.5681 73.9931ZM24.175 73.5849C26.553 74.4143 28.5449 74.495 31.5681 73.9931L31.7319 74.9796C28.5918 75.5009 26.4226 75.4279 23.8457 74.5291L24.175 73.5849ZM24.2056 73.1627C24.0837 73.2067 24.0331 73.3001 24.0309 73.3891C24.0299 73.4348 24.0421 73.4745 24.0619 73.5043C24.0798 73.5314 24.1117 73.5628 24.175 73.5849L23.8457 74.5291C23.2959 74.3374 23.0198 73.8478 23.0312 73.3655C23.0425 72.8886 23.3332 72.4143 23.8662 72.222L24.2056 73.1627ZM23.6787 70.5622C24.4316 70.5381 24.8977 71.0997 25.0133 71.6479C25.1294 72.1982 24.925 72.9031 24.2056 73.1627L23.8662 72.222C23.951 72.1915 23.9919 72.1445 24.0156 72.0935C24.0432 72.034 24.0548 71.9488 24.0349 71.8543C23.9932 71.6568 23.8628 71.5568 23.7107 71.5617L23.6787 70.5622ZM5.80347 63.0712C7.24836 66.0993 9.15797 68.0277 11.9445 69.1784C14.7611 70.3415 18.5146 70.7275 23.6787 70.5622L23.7107 71.5617C18.5086 71.7282 14.5808 71.349 11.5628 70.1027C8.51451 68.8439 6.43592 66.7188 4.90095 63.5018L5.80347 63.0712ZM6.43936 62.5072C6.2239 62.4152 6.01744 62.4726 5.88689 62.5966C5.76223 62.715 5.71361 62.8829 5.80347 63.0712L4.90095 63.5018C4.60698 62.8858 4.79017 62.2591 5.19822 61.8715C5.60038 61.4896 6.22753 61.3295 6.83185 61.5874L6.43936 62.5072ZM19.4676 65.3474C14.4551 65.1916 10.7789 64.359 6.43936 62.5072L6.83185 61.5874C11.0559 63.3899 14.6095 64.1959 19.4987 64.3479L19.4676 65.3474ZM19.852 62.5071C20.6549 62.747 21.012 63.4634 20.9356 64.1121C20.858 64.7716 20.3271 65.3742 19.4676 65.3474L19.4987 64.3479C19.6646 64.3531 19.7617 64.3024 19.82 64.2491C19.8836 64.1909 19.9299 64.1024 19.9425 63.9951C19.9671 63.7863 19.8631 63.5541 19.5657 63.4652L19.852 62.5071ZM2.19683 48.1757C3.33451 52.0906 5.08159 54.8561 7.84448 57.0461C10.626 59.2509 14.4689 60.8985 19.852 62.5071L19.5657 63.4652C14.1489 61.8466 10.1572 60.1554 7.2233 57.8298C4.27081 55.4895 2.42177 52.5332 1.23655 48.4548L2.19683 48.1757ZM2.91444 47.718C2.72184 47.5826 2.51226 47.6014 2.36219 47.702C2.21664 47.7995 2.13568 47.9653 2.19683 48.1757L1.23655 48.4548C1.04299 47.7887 1.33138 47.1889 1.80553 46.8712C2.27515 46.5565 2.9356 46.5105 3.48963 46.9L2.91444 47.718ZM35.4787 64.7859C23.2086 59.8489 15.0105 56.2234 2.91444 47.718L3.48963 46.9C15.4958 55.3422 23.6142 58.9342 35.852 63.8582L35.4787 64.7859ZM36.1312 64.5036C35.4628 66.2188 35.0958 68.0854 35.0958 70.0388H34.0958C34.0958 67.9592 34.4867 65.9696 35.1995 64.1405L36.1312 64.5036ZM35.0958 70.0388C35.0958 71.7372 35.3732 73.3698 35.8849 74.8944L34.9369 75.2125C34.3912 73.5868 34.0958 71.8468 34.0958 70.0388H35.0958ZM39.5335 58.3737L38.1972 55.3615L39.1113 54.956L40.4476 57.9682L39.5335 58.3737ZM38.1972 55.3615C37.405 53.5756 36.0766 52.0763 34.411 51.0425L34.9384 50.1929C36.7689 51.3291 38.235 52.9806 39.1113 54.956L38.1972 55.3615ZM34.411 51.0425C23.0173 43.9702 15.777 38.1583 6.43036 28.3619L7.15388 27.6716C16.4403 37.4048 23.6142 43.1637 34.9384 50.1929L34.411 51.0425ZM6.43036 28.3619C5.5606 27.4503 4.37206 27.2508 3.42238 27.5773C2.48497 27.8996 1.7812 28.7291 1.83156 29.9499L0.83241 29.9911C0.762238 28.2901 1.77917 27.0848 3.09728 26.6316C4.40313 26.1827 6.00493 26.4673 7.15388 27.6716L6.43036 28.3619ZM1.83156 29.9499C1.97809 33.5021 2.76509 36.6532 4.46135 39.6101C6.15989 42.571 8.78656 45.3658 12.6538 48.1789L12.0656 48.9876C8.11914 46.1169 5.38121 43.2233 3.59394 40.1077C1.80439 36.9882 0.984362 33.6747 0.83241 29.9911L1.83156 29.9499ZM12.6538 48.1789C18.1595 52.1839 26.1466 56.2024 37.465 60.7812L37.09 61.7082C25.75 57.1206 17.6719 53.0657 12.0655 48.9876L12.6538 48.1789ZM40.3195 58.5475C39.3203 59.4202 38.4359 60.421 37.6921 61.5242L36.8629 60.9652C37.6554 59.7898 38.5974 58.7238 39.6617 57.7943L40.3195 58.5475Z" fill="#61D0FF"/>
<path d="M66.5628 69.2527C66.5628 72.5028 65.1563 75.1376 63.4212 75.1376C61.6862 75.1376 60.2796 72.5028 60.2796 69.2527C60.2796 66.0025 61.6862 63.3677 63.4212 63.3677C65.1563 63.3677 66.5628 66.0025 66.5628 69.2527Z" fill="#61D0FF"/>
<path d="M34.0484 69.5082C34.0484 72.7584 35.4549 75.3932 37.19 75.3932C38.925 75.3932 40.3316 72.7584 40.3316 69.5082C40.3316 66.258 38.925 63.6232 37.19 63.6232C35.4549 63.6232 34.0484 66.258 34.0484 69.5082Z" fill="#61D0FF"/>
<path d="M63.4212 63.3677C63.4212 66.6179 62.0147 69.2527 60.2796 69.2527C58.5446 69.2527 57.138 66.6179 57.138 63.3677C57.138 60.1175 58.5446 57.4827 60.2796 57.4827C62.0147 57.4827 63.4212 60.1175 63.4212 63.3677Z" fill="#61D0FF"/>
<path d="M37.1899 63.6233C37.1899 66.8734 38.5965 69.5082 40.3315 69.5082C42.0666 69.5082 43.4731 66.8734 43.4731 63.6233C43.4731 60.3731 42.0666 57.7383 40.3315 57.7383C38.5965 57.7383 37.1899 60.3731 37.1899 63.6233Z" fill="#61D0FF"/>
<path d="M79.5093 23.3578C79.5093 25.0928 78.1028 26.4994 76.3677 26.4994C74.6326 26.4994 73.2261 25.0928 73.2261 23.3578C73.2261 21.6227 74.6326 20.2162 76.3677 20.2162C78.1028 20.2162 79.5093 21.6227 79.5093 23.3578Z" fill="#61D0FF" fill-opacity="0.1"/>
<path d="M21.1019 23.6133C21.1019 25.3484 22.5084 26.7549 24.2435 26.7549C25.9785 26.7549 27.3851 25.3484 27.3851 23.6133C27.3851 21.8782 25.9785 20.4717 24.2435 20.4717C22.5084 20.4717 21.1019 21.8782 21.1019 23.6133Z" fill="#61D0FF" fill-opacity="0.1"/>
<path d="M90.3669 80.1584C90.3669 81.0486 89.6452 81.7703 88.755 81.7703C87.8648 81.7703 87.1431 81.0486 87.1431 80.1584C87.1431 79.2682 87.8648 78.5466 88.755 78.5466C89.6452 78.5466 90.3669 79.2682 90.3669 80.1584Z" fill="#61D0FF" fill-opacity="0.5"/>
<path d="M10.2444 80.414C10.2444 81.3042 10.966 82.0258 11.8562 82.0258C12.7464 82.0258 13.4681 81.3042 13.4681 80.414C13.4681 79.5238 12.7464 78.8021 11.8562 78.8021C10.966 78.8021 10.2444 79.5238 10.2444 80.414Z" fill="#61D0FF" fill-opacity="0.5"/>
<path d="M59.8186 9.74848C59.8186 10.6387 59.0969 11.3603 58.2067 11.3603C57.3165 11.3603 56.5948 10.6387 56.5948 9.74848C56.5948 8.85827 57.3165 8.13661 58.2067 8.13661C59.0969 8.13661 59.8186 8.85827 59.8186 9.74848Z" fill="#61D0FF" fill-opacity="0.1"/>
<path d="M40.7926 10.004C40.7926 10.8942 41.5143 11.6159 42.4045 11.6159C43.2947 11.6159 44.0163 10.8942 44.0163 10.004C44.0163 9.11381 43.2947 8.39215 42.4045 8.39215C41.5143 8.39215 40.7926 9.11381 40.7926 10.004Z" fill="#61D0FF" fill-opacity="0.1"/>
<path d="M35.418 7.3692C35.418 8.25941 34.6964 8.98107 33.8062 8.98107C32.916 8.98107 32.1943 8.25941 32.1943 7.3692C32.1943 6.479 32.916 5.75734 33.8062 5.75734C34.6964 5.75734 35.418 6.479 35.418 7.3692Z" fill="#61D0FF" fill-opacity="0.1"/>
<path d="M65.1931 7.62474C65.1931 8.51495 65.9148 9.23661 66.805 9.23661C67.6952 9.23661 68.4169 8.51495 68.4169 7.62474C68.4169 6.73453 67.6952 6.01288 66.805 6.01288C65.9148 6.01288 65.1931 6.73453 65.1931 7.62474Z" fill="#61D0FF" fill-opacity="0.1"/>
<path d="M45.0535 24.9696C45.0535 25.8598 44.3318 26.5815 43.4416 26.5815C42.5514 26.5815 41.8297 25.8598 41.8297 24.9696C41.8297 24.0794 42.5514 23.3578 43.4416 23.3578C44.3318 23.3578 45.0535 24.0794 45.0535 24.9696Z" fill="#61D0FF" fill-opacity="0.1"/>
<path d="M55.5577 25.2252C55.5577 26.1154 56.2793 26.837 57.1695 26.837C58.0597 26.837 58.7814 26.1154 58.7814 25.2252C58.7814 24.335 58.0597 23.6133 57.1695 23.6133C56.2793 23.6133 55.5577 24.335 55.5577 25.2252Z" fill="#61D0FF" fill-opacity="0.1"/>
<path d="M37.7377 45.5491C37.7377 46.4393 37.0161 47.161 36.1259 47.161C35.2357 47.161 34.514 46.4393 34.514 45.5491C34.514 44.6589 35.2357 43.9372 36.1259 43.9372C37.0161 43.9372 37.7377 44.6589 37.7377 45.5491Z" fill="#61D0FF" fill-opacity="0.1"/>
<path d="M62.8734 45.8046C62.8734 46.6949 63.5951 47.4165 64.4853 47.4165C65.3755 47.4165 66.0971 46.6949 66.0971 45.8046C66.0971 44.9144 65.3755 44.1928 64.4853 44.1928C63.5951 44.1928 62.8734 44.9144 62.8734 45.8046Z" fill="#61D0FF" fill-opacity="0.1"/>
<path d="M83.7481 84.9119C83.7481 86.647 82.3415 88.0535 80.6065 88.0535C78.8714 88.0535 77.4649 86.647 77.4649 84.9119C77.4649 83.1769 78.8714 81.7703 80.6065 81.7703C82.3415 81.7703 83.7481 83.1769 83.7481 84.9119Z" fill="#61D0FF" fill-opacity="0.1"/>
<path d="M16.8631 85.1675C16.8631 86.9025 18.2697 88.3091 20.0047 88.3091C21.7398 88.3091 23.1463 86.9025 23.1463 85.1675C23.1463 83.4324 21.7398 82.0258 20.0047 82.0258C18.2697 82.0258 16.8631 83.4324 16.8631 85.1675Z" fill="#61D0FF" fill-opacity="0.1"/>
<path d="M100 82.3924C100 84.1274 98.5935 85.534 96.8584 85.534C95.1233 85.534 93.7168 84.1274 93.7168 82.3924C93.7168 80.6573 95.1233 79.2507 96.8584 79.2507C98.5935 79.2507 100 80.6573 100 82.3924Z" fill="#61D0FF" fill-opacity="0.1"/>
<path d="M0.611166 82.6479C0.611166 84.383 2.01771 85.7895 3.75277 85.7895C5.48783 85.7895 6.89438 84.383 6.89438 82.6479C6.89438 80.9128 5.48783 79.5063 3.75277 79.5063C2.01771 79.5063 0.611166 80.9128 0.611166 82.6479Z" fill="#61D0FF" fill-opacity="0.1"/>
<path d="M10.4978 18.6043C10.4978 21.2296 12.626 23.3578 15.2513 23.3578C17.8765 23.3578 20.0047 21.2296 20.0047 18.6043C20.0047 15.979 17.8765 13.8508 15.2513 13.8508C12.626 13.8508 10.4978 15.979 10.4978 18.6043Z" fill="black" fill-opacity="0.4"/>
<path d="M48.2679 38.929C48.2679 41.5543 50.3961 43.6825 53.0213 43.6825C55.6466 43.6825 57.7748 41.5543 57.7748 38.929C57.7748 36.3037 55.6466 34.1755 53.0213 34.1755C50.3961 34.1755 48.2679 36.3037 48.2679 38.929Z" fill="black" fill-opacity="0.8"/>
<path d="M90.8833 46.5231C99.2228 40.2314 101.414 32.0685 99.1798 21.828L92.795 28.861C93.9153 35.572 93.5565 39.3826 90.8833 46.5231Z" fill="#2A4A7C" stroke="#2A4A7C"/>
<path d="M9.72792 46.7786C1.38842 40.487 -0.803049 32.3241 1.43138 22.0835L7.81618 29.1165C6.69584 35.8276 7.0547 39.6382 9.72792 46.7786Z" fill="#2A4A7C" stroke="#2A4A7C"/>
<path d="M92.4155 57.9356C95.3838 56.3312 98.4328 51.8801 99.4173 45.6641C99.4242 45.6208 99.376 45.5898 99.3399 45.6147L94.3759 49.0288C94.3638 49.0372 94.3558 49.0512 94.3544 49.0659C93.9053 53.7372 93.9027 53.7443 92.4155 57.9356Z" fill="#2A4A7C" stroke="#2A4A7C"/>
<path d="M8.19568 58.1912C5.22742 56.5867 2.17833 52.1356 1.19385 45.9196C1.18699 45.8763 1.23514 45.8454 1.27124 45.8702L6.23524 49.2844C6.24741 49.2928 6.25533 49.3068 6.25674 49.3215C6.7059 53.9927 6.70843 53.9998 8.19568 58.1912Z" fill="#2A4A7C" stroke="#2A4A7C"/>
<path d="M88.6649 69.4891C91.7977 68.346 95.0157 65.1772 96.0594 60.7515C96.0688 60.7117 96.0289 60.678 95.9913 60.6942L90.7107 62.9657C90.6947 62.9726 90.6834 62.9881 90.6809 63.0054C90.2081 66.3262 90.2345 66.5034 88.6649 69.4891Z" fill="#2A4A7C" stroke="#2A4A7C"/>
<path d="M11.9462 69.7446C8.81346 68.6016 5.59547 65.4327 4.55178 61.007C4.54239 60.9672 4.58226 60.9336 4.61983 60.9497L9.90043 63.2213C9.91645 63.2282 9.92783 63.2436 9.93028 63.2609C10.403 66.5818 10.3767 66.7589 11.9462 69.7446Z" fill="#2A4A7C" stroke="#2A4A7C"/>
<path d="M74.0966 74.7914C76.7603 74.3857 77.7733 73.952 78.5726 72.3979C78.5908 72.3624 78.5617 72.3206 78.5221 72.3252C77.7581 72.4125 77.4695 72.3184 76.6605 72.0769C76.6342 72.0691 76.606 72.0842 76.5977 72.1102C76.2219 73.2877 75.7053 73.7107 74.0966 74.7914Z" fill="#2A4A7C"/>
<path d="M26.5145 75.0469C23.8508 74.6412 22.8379 74.2075 22.0386 72.6534C22.0203 72.6179 22.0494 72.5762 22.0891 72.5807C22.8531 72.668 23.1416 72.5739 23.9506 72.3324C23.9769 72.3246 24.0051 72.3397 24.0134 72.3658C24.3892 73.5432 24.9059 73.9663 26.5145 75.0469Z" fill="#2A4A7C"/>
</g>
<defs>
<clipPath id="clip0_58_130">
<rect width="100" height="100" fill="white"/>
</clipPath>
</defs>
</svg>
