<svg width="100" height="100" viewBox="0 0 100 100" fill="none" xmlns="http://www.w3.org/2000/svg">
<g clip-path="url(#clip0_58_82)">
<path fill-rule="evenodd" clip-rule="evenodd" d="M43.5441 54.7119L46.1201 48.9053C47.0333 46.8467 48.5612 45.1224 50.4758 43.9365C64.0052 35.5562 72.5395 28.7209 83.59 17.1387C85.9709 14.6432 90.1719 15.9969 90.0297 19.443C89.6777 27.977 86.239 34.6916 77.0235 41.395C70.1751 46.3767 60.1362 51.3522 45.8029 57.0637C45.0801 57.3517 44.2531 57.1291 43.7713 56.5181C43.3664 56.0048 43.279 55.3095 43.5441 54.7119ZM45.8472 61.436C62.5647 54.7529 72.5988 50.6459 88.2024 39.6256C88.9479 39.0991 89.9455 39.7508 89.7029 40.6307C86.9366 50.6627 80.957 54.7526 67.2049 58.7198C66.1015 59.0381 66.2776 60.6183 67.4259 60.6035C74.0521 60.5181 78.6058 59.527 84.1737 57.1026C84.9908 56.7468 85.8399 57.5324 85.471 58.3438C81.9785 66.0238 76.0952 68.3048 63.6549 67.9067C62.5875 67.8725 62.2479 69.4671 63.2525 69.8296C64.0247 70.1082 64.0578 71.1687 63.2826 71.439C60.3607 72.4582 57.9068 72.5488 54.2723 71.9454C53.5693 71.8287 53.0098 72.5512 53.3208 73.1925C53.7154 74.0061 52.7509 74.801 52.0276 74.2583L45.613 69.445C45.3613 69.2561 45.2132 68.9598 45.2132 68.6451V62.3667C45.2132 61.9577 45.4674 61.5878 45.8472 61.436Z" fill="#61D0FF"/>
<path d="M46.1201 48.9053L46.5771 49.108L46.5771 49.108L46.1201 48.9053ZM43.5441 54.7119L43.087 54.5092L43.087 54.5092L43.5441 54.7119ZM50.4758 43.9365L50.7391 44.3616L50.7391 44.3616L50.4758 43.9365ZM83.59 17.1387L83.2282 16.7935L83.59 17.1387ZM90.0297 19.443L90.5293 19.4636L90.5293 19.4636L90.0297 19.443ZM77.0235 41.395L76.7294 40.9907L76.7294 40.9907L77.0235 41.395ZM45.8029 57.0637L45.988 57.5281L45.988 57.5281L45.8029 57.0637ZM43.7713 56.5181L44.1639 56.2085L44.1639 56.2085L43.7713 56.5181ZM88.2024 39.6256L87.9139 39.2172L87.9139 39.2172L88.2024 39.6256ZM45.8472 61.436L46.0328 61.9003L46.0328 61.9003L45.8472 61.436ZM89.7029 40.6307L89.2209 40.4978L89.2209 40.4978L89.7029 40.6307ZM67.2049 58.7198L67.0663 58.2394L67.0663 58.2394L67.2049 58.7198ZM67.4259 60.6035L67.4324 61.1035L67.4324 61.1035L67.4259 60.6035ZM84.1737 57.1026L84.3733 57.561L84.3733 57.561L84.1737 57.1026ZM85.471 58.3438L85.9261 58.5507L85.9261 58.5507L85.471 58.3438ZM63.6549 67.9067L63.6389 68.4064L63.6389 68.4064L63.6549 67.9067ZM63.2525 69.8296L63.4222 69.3593L63.2525 69.8296ZM63.2826 71.439L63.4473 71.9112L63.4473 71.9112L63.2826 71.439ZM54.2723 71.9454L54.1904 72.4387L54.1904 72.4387L54.2723 71.9454ZM53.3208 73.1925L52.8709 73.4106L52.8709 73.4106L53.3208 73.1925ZM52.0276 74.2583L51.7275 74.6582L51.7275 74.6582L52.0276 74.2583ZM45.613 69.445L45.3129 69.8449L45.3129 69.8449L45.613 69.445ZM45.663 48.7025L43.087 54.5092L44.0011 54.9147L46.5771 49.108L45.663 48.7025ZM50.2125 43.5115C48.215 44.7487 46.6182 46.5493 45.663 48.7025L46.5771 49.108C47.4484 47.144 48.9074 45.4961 50.7391 44.3616L50.2125 43.5115ZM83.2282 16.7935C72.2081 28.3439 63.7072 35.1527 50.2125 43.5115L50.7391 44.3616C64.3031 35.9598 72.8708 29.0979 83.9517 17.4838L83.2282 16.7935ZM90.5293 19.4636C90.6103 17.5005 89.439 16.1126 87.9185 15.5899C86.4103 15.0714 84.5582 15.3995 83.2282 16.7935L83.9517 17.4838C85.0026 16.3824 86.4414 16.1395 87.5934 16.5356C88.7332 16.9274 89.5913 17.9394 89.5301 19.4224L90.5293 19.4636ZM77.3177 41.7994C81.965 38.4189 85.1842 35.0149 87.2841 31.3543C89.3864 27.6896 90.3506 23.7963 90.5293 19.4636L89.5301 19.4224C89.3568 23.6237 88.4257 27.3546 86.4167 30.8567C84.4055 34.3627 81.2976 37.6678 76.7294 40.9907L77.3177 41.7994ZM45.988 57.5281C60.331 51.8128 70.4172 46.8189 77.3177 41.7994L76.7294 40.9907C69.933 45.9345 59.9415 50.8916 45.6178 56.5992L45.988 57.5281ZM43.3787 56.8278C43.9973 57.6122 45.0591 57.8983 45.988 57.5281L45.6178 56.5992C45.1011 56.8051 44.509 56.6461 44.1639 56.2085L43.3787 56.8278ZM43.087 54.5092C42.7467 55.2763 42.859 56.1688 43.3787 56.8278L44.1639 56.2085C43.8739 55.8408 43.8112 55.3428 44.0011 54.9147L43.087 54.5092ZM87.9139 39.2172C72.3598 50.2025 62.3704 54.2921 45.6616 60.9717L46.0328 61.9003C62.759 55.2137 72.8377 51.0892 88.4908 40.0341L87.9139 39.2172ZM90.1849 40.7636C90.5664 39.3799 88.9994 38.4506 87.9139 39.2172L88.4908 40.0341C88.6829 39.8984 88.8937 39.9159 89.0468 40.0174C89.196 40.1164 89.2795 40.2853 89.2209 40.4978L90.1849 40.7636ZM67.3435 59.2002C74.233 57.2127 79.2427 55.1775 82.8808 52.344C86.5406 49.4937 88.7788 45.863 90.1849 40.7636L89.2209 40.4978C87.8607 45.4304 85.7259 48.8607 82.2664 51.5551C78.7851 54.2664 73.9289 56.2597 67.0663 58.2394L67.3435 59.2002ZM67.4195 60.1036C67.2543 60.1057 67.1552 60.0532 67.0941 59.9958C67.0277 59.9334 66.9804 59.8402 66.9678 59.7296C66.9431 59.5143 67.0496 59.285 67.3435 59.2002L67.0663 58.2394C66.2568 58.4729 65.8997 59.1929 65.9743 59.8435C66.0497 60.502 66.5731 61.1146 67.4324 61.1035L67.4195 60.1036ZM83.974 56.6442C78.4696 59.041 73.9818 60.0189 67.4195 60.1036L67.4324 61.1035C74.1223 61.0172 78.742 60.0131 84.3733 57.561L83.974 56.6442ZM85.9261 58.5507C86.2074 57.9322 86.0189 57.3077 85.6104 56.9219C85.2064 56.5405 84.5785 56.381 83.974 56.6442L84.3733 57.561C84.586 57.4684 84.7912 57.5238 84.9239 57.649C85.052 57.77 85.1035 57.944 85.0158 58.1368L85.9261 58.5507ZM63.6389 68.4064C69.878 68.6061 74.5491 68.139 78.115 66.6143C81.7119 65.0763 84.1379 62.4831 85.9261 58.5507L85.0158 58.1368C83.3116 61.8845 81.0498 64.2718 77.7218 65.6948C74.3629 67.131 69.8722 67.6054 63.6709 67.4069L63.6389 68.4064ZM63.4222 69.3593C63.2134 69.2839 63.1106 69.0848 63.1659 68.8226C63.2217 68.5583 63.4056 68.3989 63.6389 68.4064L63.6709 67.4069C62.8368 67.3802 62.3172 68.0011 62.1874 68.6162C62.0572 69.2334 62.287 70.0128 63.0828 70.2999L63.4222 69.3593ZM63.4473 71.9112C64.056 71.6988 64.3603 71.1586 64.3477 70.6256C64.3352 70.0979 64.0139 69.5727 63.4222 69.3593L63.0828 70.2999C63.2633 70.365 63.3447 70.5094 63.348 70.6492C63.3512 70.7837 63.2844 70.9089 63.1179 70.9669L63.4473 71.9112ZM54.1904 72.4387C57.8834 73.0518 60.4259 72.965 63.4473 71.9112L63.1179 70.9669C60.2955 71.9514 57.9303 72.0459 54.3542 71.4522L54.1904 72.4387ZM53.7707 72.9743C53.6447 72.7144 53.8697 72.3854 54.1904 72.4387L54.3542 71.4522C53.2689 71.272 52.375 72.3881 52.8709 73.4106L53.7707 72.9743ZM51.7275 74.6582C52.8702 75.5156 54.3941 74.2597 53.7707 72.9743L52.8709 73.4106C53.0366 73.7524 52.6315 74.0863 52.3277 73.8583L51.7275 74.6582ZM45.3129 69.8449L51.7275 74.6582L52.3277 73.8583L45.9131 69.0451L45.3129 69.8449ZM44.7132 68.6451C44.7132 69.1171 44.9354 69.5616 45.3129 69.8449L45.9131 69.0451C45.7873 68.9506 45.7132 68.8025 45.7132 68.6451H44.7132ZM44.7132 62.3667V68.6451H45.7132V62.3667H44.7132ZM45.6616 60.9717C45.0949 61.1983 44.7132 61.75 44.7132 62.3667H45.7132C45.7132 62.1653 45.8399 61.9774 46.0328 61.9003L45.6616 60.9717Z" fill="#61D0FF"/>
<circle cx="32.2215" cy="66.7" r="18.5765" fill="#2A4A7C"/>
<path d="M26.0753 59.8008C26.0753 61.8471 24.4164 63.506 22.3701 63.506C20.3237 63.506 18.6649 61.8471 18.6649 59.8008C18.6649 57.7544 20.3237 56.0955 22.3701 56.0955C24.4164 56.0955 26.0753 57.7544 26.0753 59.8008Z" fill="#61D0FF"/>
<path d="M43.3926 35.5614C43.3926 37.6078 41.7337 39.2667 39.6874 39.2667C37.641 39.2667 35.9821 37.6078 35.9821 35.5614C35.9821 33.5151 37.641 31.8562 39.6874 31.8562C41.7337 31.8562 43.3926 33.5151 43.3926 35.5614Z" fill="#61D0FF" fill-opacity="0.1"/>
<path d="M66.7129 10.141C66.7129 12.1874 65.054 13.8462 63.0077 13.8462C60.9613 13.8462 59.3024 12.1874 59.3024 10.141C59.3024 8.09465 60.9613 6.43576 63.0077 6.43576C65.054 6.43576 66.7129 8.09465 66.7129 10.141Z" fill="#61D0FF" fill-opacity="0.1"/>
<path d="M26.0754 13.8463C26.0754 14.8962 25.2242 15.7473 24.1743 15.7473C23.1244 15.7473 22.2733 14.8962 22.2733 13.8463C22.2733 12.7963 23.1244 11.9452 24.1743 11.9452C25.2242 11.9452 26.0754 12.7963 26.0754 13.8463Z" fill="#61D0FF" fill-opacity="0.1"/>
<path d="M17.4471 38.1179C17.4471 39.1678 16.596 40.019 15.5461 40.019C14.4961 40.019 13.645 39.1678 13.645 38.1179C13.645 37.068 14.4961 36.2169 15.5461 36.2169C16.596 36.2169 17.4471 37.068 17.4471 38.1179Z" fill="#61D0FF" fill-opacity="0.1"/>
<path d="M71.266 89.2277C71.266 91.274 69.6071 92.9329 67.5607 92.9329C65.5144 92.9329 63.8555 91.274 63.8555 89.2277C63.8555 87.1813 65.5144 85.5224 67.5607 85.5224C69.6071 85.5224 71.266 87.1813 71.266 89.2277Z" fill="#61D0FF" fill-opacity="0.1"/>
<path d="M98.2903 85.2765C98.2903 87.3228 96.6314 88.9817 94.5851 88.9817C92.5387 88.9817 90.8799 87.3228 90.8799 85.2765C90.8799 83.2301 92.5387 81.5712 94.5851 81.5712C96.6314 81.5712 98.2903 83.2301 98.2903 85.2765Z" fill="#61D0FF" fill-opacity="0.1"/>
<path d="M80.1275 39.2667C89.9632 31.8462 92.5478 22.2188 89.9125 10.141L82.3822 18.4358C83.7035 26.3509 83.2803 30.8451 80.1275 39.2667Z" fill="#2A4A7C" stroke="#2A4A7C"/>
<path d="M81.9346 52.7267C85.4387 50.8326 89.0383 45.5749 90.1959 38.2329C90.2027 38.1897 90.1546 38.1587 90.1185 38.1835L84.2433 42.2243C84.2312 42.2327 84.2232 42.2467 84.2218 42.2614C83.6917 47.775 83.6891 47.7821 81.9346 52.7267Z" fill="#2A4A7C" stroke="#2A4A7C"/>
</g>
<defs>
<clipPath id="clip0_58_82">
<rect width="100" height="100" fill="white"/>
</clipPath>
</defs>
</svg>
