<svg width="930" height="930" viewBox="0 0 930 930" fill="none" xmlns="http://www.w3.org/2000/svg">
<g clip-path="url(#clip0_1_38)">
<g filter="url(#filter0_d_1_38)">
<path d="M473.489 498.005C473.489 498.005 396.667 709.448 394.032 778.44C391.397 847.433 436.513 939.597 428.879 900.692C421.246 861.788 531.019 852.795 533.654 783.803C536.288 714.81 473.489 498.005 473.489 498.005Z" fill="#14B8A6"/>
<path d="M473.489 498.005C473.489 498.005 396.667 709.448 394.032 778.44C391.397 847.433 436.513 939.597 428.879 900.692C421.246 861.788 531.019 852.795 533.654 783.803C536.288 714.81 473.489 498.005 473.489 498.005Z" stroke="black" stroke-width="13"/>
</g>
<g filter="url(#filter1_d_1_38)">
<path d="M442.875 414.612C442.875 414.612 349.856 213.284 305.647 160.355C261.437 107.426 172.333 64.3939 202.896 89.0513C233.459 113.709 171.617 182.872 215.827 235.801C260.036 288.73 442.875 414.612 442.875 414.612Z" fill="#F43F5E"/>
<path d="M442.875 414.612C442.875 414.612 349.856 213.284 305.647 160.355C261.437 107.426 172.333 64.3939 202.896 89.0513C233.459 113.709 171.617 182.872 215.827 235.801C260.036 288.73 442.875 414.612 442.875 414.612Z" stroke="black" stroke-width="13"/>
</g>
<g filter="url(#filter2_d_1_38)">
<path d="M447.112 484.996C447.112 484.996 362.596 693.466 318.387 746.395C274.177 799.323 179.059 837.303 210.749 813.593C242.44 789.883 167.064 709.352 211.274 656.423C255.483 603.494 447.112 484.996 447.112 484.996Z" fill="#3B82F6"/>
<path d="M447.112 484.996C447.112 484.996 362.596 693.466 318.387 746.395C274.177 799.323 179.059 837.303 210.749 813.593C242.44 789.883 167.064 709.352 211.274 656.423C255.483 603.494 447.112 484.996 447.112 484.996Z" stroke="black" stroke-width="13"/>
</g>
<g filter="url(#filter3_d_1_38)">
<path d="M430.815 435.834C430.815 435.834 244.02 311.118 177.782 292.285C111.543 273.451 11.5923 295.689 51.0934 297.422C90.5945 299.155 73.4295 408.254 139.668 427.088C205.906 445.921 430.815 435.834 430.815 435.834Z" fill="#D946EF"/>
<path d="M430.815 435.834C430.815 435.834 244.02 311.118 177.782 292.285C111.543 273.451 11.5923 295.689 51.0934 297.422C90.5945 299.155 73.4295 408.254 139.668 427.088C205.906 445.921 430.815 435.834 430.815 435.834Z" stroke="black" stroke-width="13"/>
</g>
<g filter="url(#filter4_d_1_38)">
<path d="M430.815 466.146C430.815 466.146 244.02 590.862 177.782 609.696C111.543 628.529 11.5923 606.291 51.0934 604.558C90.5945 602.825 73.4295 493.726 139.668 474.893C205.906 456.059 430.815 466.146 430.815 466.146Z" fill="#8B5CF6"/>
<path d="M430.815 466.146C430.815 466.146 244.02 590.862 177.782 609.696C111.543 628.529 11.5923 606.291 51.0934 604.558C90.5945 602.825 73.4295 493.726 139.668 474.893C205.906 456.059 430.815 466.146 430.815 466.146Z" stroke="black" stroke-width="13"/>
</g>
<g filter="url(#filter5_d_1_38)">
<path d="M499.245 413.508C499.245 413.508 584.507 209.203 626.323 154.353C668.139 99.5029 754.344 51.8451 725.075 77.9719C695.806 104.099 758.63 168.879 716.814 223.729C674.998 278.579 499.245 413.508 499.245 413.508Z" fill="#EF4444"/>
<path d="M499.245 413.508C499.245 413.508 584.507 209.203 626.323 154.353C668.139 99.5029 754.344 51.8451 725.075 77.9719C695.806 104.099 758.63 168.879 716.814 223.729C674.998 278.579 499.245 413.508 499.245 413.508Z" stroke="black" stroke-width="13"/>
</g>
<g filter="url(#filter6_d_1_38)">
<path d="M474.222 417.675C474.222 417.675 401.645 205.544 403.598 136.6C405.551 67.656 501.854 -25.7268 493.33 12.5699C484.806 50.8666 542.124 67.656 540.171 136.6C538.218 205.544 474.222 417.675 474.222 417.675Z" fill="white"/>
<path d="M474.222 417.675C474.222 417.675 401.645 205.544 403.598 136.6C405.551 67.656 501.854 -25.7268 493.33 12.5699C484.806 50.8666 542.124 67.656 540.171 136.6C538.218 205.544 474.222 417.675 474.222 417.675Z" stroke="black" stroke-width="13"/>
</g>
<g filter="url(#filter7_d_1_38)">
<path d="M494.003 487.281C494.003 487.281 569.182 699.317 610.998 754.167C652.814 809.017 746.153 851.205 715.546 826.104C684.939 801.003 763.815 723.916 721.999 669.066C680.183 614.217 494.003 487.281 494.003 487.281Z" fill="#22C55E"/>
<path d="M494.003 487.281C494.003 487.281 569.182 699.317 610.998 754.167C652.814 809.017 746.153 851.205 715.546 826.104C684.939 801.003 763.815 723.916 721.999 669.066C680.183 614.217 494.003 487.281 494.003 487.281Z" stroke="black" stroke-width="13"/>
</g>
<g filter="url(#filter8_d_1_38)">
<path d="M510.422 435.412C510.422 435.412 699.983 314.966 766.629 297.64C833.275 280.314 932.699 304.814 893.169 305.651C853.639 306.487 868.338 415.947 801.692 433.273C735.046 450.599 510.422 435.412 510.422 435.412Z" fill="#F97316"/>
<path d="M510.422 435.412C510.422 435.412 699.983 314.966 766.629 297.64C833.275 280.314 932.699 304.814 893.169 305.651C853.639 306.487 868.338 415.947 801.692 433.273C735.046 450.599 510.422 435.412 510.422 435.412Z" stroke="black" stroke-width="13"/>
</g>
<g filter="url(#filter9_d_1_38)">
<path d="M510.422 466.568C510.422 466.568 699.983 587.015 766.629 604.34C833.275 621.666 932.699 597.166 893.169 596.33C853.639 595.493 868.338 486.033 801.692 468.707C735.046 451.381 510.422 466.568 510.422 466.568Z" fill="#EAB308"/>
<path d="M510.422 466.568C510.422 466.568 699.983 587.015 766.629 604.34C833.275 621.666 932.699 597.166 893.169 596.33C853.639 595.493 868.338 486.033 801.692 468.707C735.046 451.381 510.422 466.568 510.422 466.568Z" stroke="black" stroke-width="13"/>
</g>
<g filter="url(#filter10_d_1_38)">
<path d="M75.2925 426.577C75.2925 426.577 40.3065 403.064 27.8844 399.439C15.4622 395.815 -3.31401 399.749 4.09985 400.147C11.5137 400.546 8.22315 420.764 20.6453 424.389C33.0674 428.013 75.2925 426.577 75.2925 426.577Z" fill="#EAB308"/>
<path d="M75.2925 426.577C75.2925 426.577 40.3065 403.064 27.8844 399.439C15.4622 395.815 -3.31401 399.749 4.09985 400.147C11.5137 400.546 8.22315 420.764 20.6453 424.389C33.0674 428.013 75.2925 426.577 75.2925 426.577Z" stroke="black" stroke-width="6"/>
</g>
<g filter="url(#filter11_d_1_38)">
<path d="M800.831 451.901C800.831 451.901 867.799 465.788 889.367 465.748C910.936 465.709 939.138 455.747 927.09 457.627C915.042 459.507 910.855 437.216 889.286 437.255C867.717 437.294 800.831 451.901 800.831 451.901Z" fill="white"/>
<path d="M800.831 451.901C800.831 451.901 867.799 465.788 889.367 465.748C910.936 465.709 939.138 455.747 927.09 457.627C915.042 459.507 910.855 437.216 889.286 437.255C867.717 437.294 800.831 451.901 800.831 451.901Z" stroke="black" stroke-width="6"/>
</g>
<g filter="url(#filter12_d_1_38)">
<path d="M592.551 156.962C592.551 156.962 602.01 83.9366 610.041 62.2512C618.073 40.5657 639.525 16.2417 632.985 27.5991C626.446 38.9564 649.524 52.2336 641.493 73.9191C633.461 95.6046 592.551 156.962 592.551 156.962Z" fill="#EAB308"/>
<path d="M592.551 156.962C592.551 156.962 602.01 83.9366 610.041 62.2512C618.073 40.5657 639.525 16.2417 632.985 27.5991C626.446 38.9564 649.524 52.2336 641.493 73.9191C633.461 95.6046 592.551 156.962 592.551 156.962Z" stroke="black" stroke-width="6"/>
</g>
<g filter="url(#filter13_d_1_38)">
<path d="M570.266 747.773C570.266 747.773 573.485 821.341 579.644 843.627C585.804 865.912 605.109 891.955 599.559 880.087C594.009 868.22 618.13 856.927 611.971 834.642C605.811 812.356 570.266 747.773 570.266 747.773Z" fill="#EAB308"/>
<path d="M570.266 747.773C570.266 747.773 573.485 821.341 579.644 843.627C585.804 865.912 605.109 891.955 599.559 880.087C594.009 868.22 618.13 856.927 611.971 834.642C605.811 812.356 570.266 747.773 570.266 747.773Z" stroke="black" stroke-width="6"/>
</g>
<g filter="url(#filter14_d_1_38)">
<path d="M700.618 292.702C700.618 292.702 783.754 266.617 807.193 252.592C830.633 238.566 853.95 207.873 842.232 218.024C830.513 228.175 809.471 203.101 786.032 217.127C762.592 231.153 700.618 292.702 700.618 292.702Z" fill="#EAB308"/>
<path d="M700.618 292.702C700.618 292.702 783.754 266.617 807.193 252.592C830.633 238.566 853.95 207.873 842.232 218.024C830.513 228.175 809.471 203.101 786.032 217.127C762.592 231.153 700.618 292.702 700.618 292.702Z" stroke="black" stroke-width="6"/>
</g>
<g filter="url(#filter15_d_1_38)">
<path d="M698.577 599.14C698.577 599.14 768.51 621.6 788.331 633.42C808.152 645.24 828.131 670.766 818.173 662.276C808.214 653.785 791.007 674.153 771.186 662.333C751.365 650.514 698.577 599.14 698.577 599.14Z" fill="white"/>
<path d="M698.577 599.14C698.577 599.14 768.51 621.6 788.331 633.42C808.152 645.24 828.131 670.766 818.173 662.276C808.214 653.785 791.007 674.153 771.186 662.333C751.365 650.514 698.577 599.14 698.577 599.14Z" stroke="black" stroke-width="6"/>
</g>
<g filter="url(#filter16_d_1_38)">
<path d="M363.448 184.91C363.448 184.91 342.597 123.741 332.64 105.833C322.683 87.926 302.545 68.4529 309.442 77.7166C316.338 86.9803 302.253 99.3237 312.21 117.231C322.167 135.138 363.448 184.91 363.448 184.91Z" fill="white"/>
<path d="M363.448 184.91C363.448 184.91 342.597 123.741 332.64 105.833C322.683 87.926 302.545 68.4529 309.442 77.7166C316.338 86.9803 302.253 99.3237 312.21 117.231C322.167 135.138 363.448 184.91 363.448 184.91Z" stroke="black" stroke-width="6"/>
</g>
<g filter="url(#filter17_d_1_38)">
<path d="M336.323 888.224C336.323 888.224 342.001 823.849 347.405 804.085C352.808 784.321 367.727 760.611 363.236 771.251C358.745 781.891 375.365 790.523 369.961 810.287C364.558 830.051 336.323 888.224 336.323 888.224Z" fill="white"/>
<path d="M336.323 888.224C336.323 888.224 342.001 823.849 347.405 804.085C352.808 784.321 367.727 760.611 363.236 771.251C358.745 781.891 375.365 790.523 369.961 810.287C364.558 830.051 336.323 888.224 336.323 888.224Z" stroke="black" stroke-width="6"/>
</g>
<g filter="url(#filter18_d_1_38)">
<path d="M171.152 182.037C171.152 182.037 115.907 148.759 100.547 135.241C85.1878 121.723 70.4514 97.8985 78.0284 106.602C85.6054 115.306 100.616 104.094 115.975 117.612C131.335 131.13 171.152 182.037 171.152 182.037Z" fill="#EAB308"/>
<path d="M171.152 182.037C171.152 182.037 115.907 148.759 100.547 135.241C85.1878 121.723 70.4514 97.8985 78.0284 106.602C85.6054 115.306 100.616 104.094 115.975 117.612C131.335 131.13 171.152 182.037 171.152 182.037Z" stroke="black" stroke-width="6"/>
</g>
<g filter="url(#filter19_d_1_38)">
<path d="M178.391 702.594C178.391 702.594 123.146 735.872 107.787 749.39C92.4271 762.908 77.6906 786.732 85.2676 778.028C92.8447 769.325 107.855 780.537 123.215 767.019C138.574 753.501 178.391 702.594 178.391 702.594Z" fill="#EAB308"/>
<path d="M178.391 702.594C178.391 702.594 123.146 735.872 107.787 749.39C92.4271 762.908 77.6906 786.732 85.2676 778.028C92.8447 769.325 107.855 780.537 123.215 767.019C138.574 753.501 178.391 702.594 178.391 702.594Z" stroke="black" stroke-width="6"/>
</g>
</g>
<defs>
<filter id="filter0_d_1_38" x="383.421" y="477.05" width="160.813" height="447.391" filterUnits="userSpaceOnUse" color-interpolation-filters="sRGB">
<feFlood flood-opacity="0" result="BackgroundImageFix"/>
<feColorMatrix in="SourceAlpha" type="matrix" values="0 0 0 0 0 0 0 0 0 0 0 0 0 0 0 0 0 0 127 0" result="hardAlpha"/>
<feOffset dy="4"/>
<feGaussianBlur stdDeviation="2"/>
<feComposite in2="hardAlpha" operator="out"/>
<feColorMatrix type="matrix" values="0 0 0 0 0 0 0 0 0 0 0 0 0 0 0 0 0 0 0.25 0"/>
<feBlend mode="normal" in2="BackgroundImageFix" result="effect1_dropShadow_1_38"/>
<feBlend mode="normal" in="SourceGraphic" in2="effect1_dropShadow_1_38" result="shape"/>
</filter>
<filter id="filter1_d_1_38" x="186.152" y="75.4107" width="276.566" height="366.007" filterUnits="userSpaceOnUse" color-interpolation-filters="sRGB">
<feFlood flood-opacity="0" result="BackgroundImageFix"/>
<feColorMatrix in="SourceAlpha" type="matrix" values="0 0 0 0 0 0 0 0 0 0 0 0 0 0 0 0 0 0 127 0" result="hardAlpha"/>
<feOffset dy="4"/>
<feGaussianBlur stdDeviation="2"/>
<feComposite in2="hardAlpha" operator="out"/>
<feColorMatrix type="matrix" values="0 0 0 0 0 0 0 0 0 0 0 0 0 0 0 0 0 0 0.25 0"/>
<feBlend mode="normal" in2="BackgroundImageFix" result="effect1_dropShadow_1_38"/>
<feBlend mode="normal" in="SourceGraphic" in2="effect1_dropShadow_1_38" result="shape"/>
</filter>
<filter id="filter2_d_1_38" x="186.483" y="469.004" width="278.121" height="366.305" filterUnits="userSpaceOnUse" color-interpolation-filters="sRGB">
<feFlood flood-opacity="0" result="BackgroundImageFix"/>
<feColorMatrix in="SourceAlpha" type="matrix" values="0 0 0 0 0 0 0 0 0 0 0 0 0 0 0 0 0 0 127 0" result="hardAlpha"/>
<feOffset dy="4"/>
<feGaussianBlur stdDeviation="2"/>
<feComposite in2="hardAlpha" operator="out"/>
<feColorMatrix type="matrix" values="0 0 0 0 0 0 0 0 0 0 0 0 0 0 0 0 0 0 0.25 0"/>
<feBlend mode="normal" in2="BackgroundImageFix" result="effect1_dropShadow_1_38"/>
<feBlend mode="normal" in="SourceGraphic" in2="effect1_dropShadow_1_38" result="shape"/>
</filter>
<filter id="filter3_d_1_38" x="31.6328" y="278.256" width="423.282" height="174.779" filterUnits="userSpaceOnUse" color-interpolation-filters="sRGB">
<feFlood flood-opacity="0" result="BackgroundImageFix"/>
<feColorMatrix in="SourceAlpha" type="matrix" values="0 0 0 0 0 0 0 0 0 0 0 0 0 0 0 0 0 0 127 0" result="hardAlpha"/>
<feOffset dy="4"/>
<feGaussianBlur stdDeviation="2"/>
<feComposite in2="hardAlpha" operator="out"/>
<feColorMatrix type="matrix" values="0 0 0 0 0 0 0 0 0 0 0 0 0 0 0 0 0 0 0.25 0"/>
<feBlend mode="normal" in2="BackgroundImageFix" result="effect1_dropShadow_1_38"/>
<feBlend mode="normal" in="SourceGraphic" in2="effect1_dropShadow_1_38" result="shape"/>
</filter>
<filter id="filter4_d_1_38" x="31.6328" y="456.946" width="423.282" height="174.779" filterUnits="userSpaceOnUse" color-interpolation-filters="sRGB">
<feFlood flood-opacity="0" result="BackgroundImageFix"/>
<feColorMatrix in="SourceAlpha" type="matrix" values="0 0 0 0 0 0 0 0 0 0 0 0 0 0 0 0 0 0 127 0" result="hardAlpha"/>
<feOffset dy="4"/>
<feGaussianBlur stdDeviation="2"/>
<feComposite in2="hardAlpha" operator="out"/>
<feColorMatrix type="matrix" values="0 0 0 0 0 0 0 0 0 0 0 0 0 0 0 0 0 0 0.25 0"/>
<feBlend mode="normal" in2="BackgroundImageFix" result="effect1_dropShadow_1_38"/>
<feBlend mode="normal" in="SourceGraphic" in2="effect1_dropShadow_1_38" result="shape"/>
</filter>
<filter id="filter5_d_1_38" x="479.852" y="64.1036" width="262.313" height="377.421" filterUnits="userSpaceOnUse" color-interpolation-filters="sRGB">
<feFlood flood-opacity="0" result="BackgroundImageFix"/>
<feColorMatrix in="SourceAlpha" type="matrix" values="0 0 0 0 0 0 0 0 0 0 0 0 0 0 0 0 0 0 127 0" result="hardAlpha"/>
<feOffset dy="4"/>
<feGaussianBlur stdDeviation="2"/>
<feComposite in2="hardAlpha" operator="out"/>
<feColorMatrix type="matrix" values="0 0 0 0 0 0 0 0 0 0 0 0 0 0 0 0 0 0 0.25 0"/>
<feBlend mode="normal" in2="BackgroundImageFix" result="effect1_dropShadow_1_38"/>
<feBlend mode="normal" in="SourceGraphic" in2="effect1_dropShadow_1_38" result="shape"/>
</filter>
<filter id="filter6_d_1_38" x="393.06" y="-2.83914" width="157.659" height="449.728" filterUnits="userSpaceOnUse" color-interpolation-filters="sRGB">
<feFlood flood-opacity="0" result="BackgroundImageFix"/>
<feColorMatrix in="SourceAlpha" type="matrix" values="0 0 0 0 0 0 0 0 0 0 0 0 0 0 0 0 0 0 127 0" result="hardAlpha"/>
<feOffset dy="4"/>
<feGaussianBlur stdDeviation="2"/>
<feComposite in2="hardAlpha" operator="out"/>
<feColorMatrix type="matrix" values="0 0 0 0 0 0 0 0 0 0 0 0 0 0 0 0 0 0 0.25 0"/>
<feBlend mode="normal" in2="BackgroundImageFix" result="effect1_dropShadow_1_38"/>
<feBlend mode="normal" in="SourceGraphic" in2="effect1_dropShadow_1_38" result="shape"/>
</filter>
<filter id="filter7_d_1_38" x="477.234" y="470.702" width="267.781" height="377.334" filterUnits="userSpaceOnUse" color-interpolation-filters="sRGB">
<feFlood flood-opacity="0" result="BackgroundImageFix"/>
<feColorMatrix in="SourceAlpha" type="matrix" values="0 0 0 0 0 0 0 0 0 0 0 0 0 0 0 0 0 0 127 0" result="hardAlpha"/>
<feOffset dy="4"/>
<feGaussianBlur stdDeviation="2"/>
<feComposite in2="hardAlpha" operator="out"/>
<feColorMatrix type="matrix" values="0 0 0 0 0 0 0 0 0 0 0 0 0 0 0 0 0 0 0.25 0"/>
<feBlend mode="normal" in2="BackgroundImageFix" result="effect1_dropShadow_1_38"/>
<feBlend mode="normal" in="SourceGraphic" in2="effect1_dropShadow_1_38" result="shape"/>
</filter>
<filter id="filter8_d_1_38" x="486.201" y="284.955" width="426.474" height="171.117" filterUnits="userSpaceOnUse" color-interpolation-filters="sRGB">
<feFlood flood-opacity="0" result="BackgroundImageFix"/>
<feColorMatrix in="SourceAlpha" type="matrix" values="0 0 0 0 0 0 0 0 0 0 0 0 0 0 0 0 0 0 127 0" result="hardAlpha"/>
<feOffset dy="4"/>
<feGaussianBlur stdDeviation="2"/>
<feComposite in2="hardAlpha" operator="out"/>
<feColorMatrix type="matrix" values="0 0 0 0 0 0 0 0 0 0 0 0 0 0 0 0 0 0 0.25 0"/>
<feBlend mode="normal" in2="BackgroundImageFix" result="effect1_dropShadow_1_38"/>
<feBlend mode="normal" in="SourceGraphic" in2="effect1_dropShadow_1_38" result="shape"/>
</filter>
<filter id="filter9_d_1_38" x="486.201" y="453.908" width="426.474" height="171.117" filterUnits="userSpaceOnUse" color-interpolation-filters="sRGB">
<feFlood flood-opacity="0" result="BackgroundImageFix"/>
<feColorMatrix in="SourceAlpha" type="matrix" values="0 0 0 0 0 0 0 0 0 0 0 0 0 0 0 0 0 0 127 0" result="hardAlpha"/>
<feOffset dy="4"/>
<feGaussianBlur stdDeviation="2"/>
<feComposite in2="hardAlpha" operator="out"/>
<feColorMatrix type="matrix" values="0 0 0 0 0 0 0 0 0 0 0 0 0 0 0 0 0 0 0.25 0"/>
<feBlend mode="normal" in2="BackgroundImageFix" result="effect1_dropShadow_1_38"/>
<feBlend mode="normal" in="SourceGraphic" in2="effect1_dropShadow_1_38" result="shape"/>
</filter>
<filter id="filter10_d_1_38" x="-4.58008" y="394.916" width="93.2424" height="42.9434" filterUnits="userSpaceOnUse" color-interpolation-filters="sRGB">
<feFlood flood-opacity="0" result="BackgroundImageFix"/>
<feColorMatrix in="SourceAlpha" type="matrix" values="0 0 0 0 0 0 0 0 0 0 0 0 0 0 0 0 0 0 127 0" result="hardAlpha"/>
<feOffset dy="4"/>
<feGaussianBlur stdDeviation="2"/>
<feComposite in2="hardAlpha" operator="out"/>
<feColorMatrix type="matrix" values="0 0 0 0 0 0 0 0 0 0 0 0 0 0 0 0 0 0 0.25 0"/>
<feBlend mode="normal" in2="BackgroundImageFix" result="effect1_dropShadow_1_38"/>
<feBlend mode="normal" in="SourceGraphic" in2="effect1_dropShadow_1_38" result="shape"/>
</filter>
<filter id="filter11_d_1_38" x="796.188" y="434.255" width="140.796" height="42.4936" filterUnits="userSpaceOnUse" color-interpolation-filters="sRGB">
<feFlood flood-opacity="0" result="BackgroundImageFix"/>
<feColorMatrix in="SourceAlpha" type="matrix" values="0 0 0 0 0 0 0 0 0 0 0 0 0 0 0 0 0 0 127 0" result="hardAlpha"/>
<feOffset dy="4"/>
<feGaussianBlur stdDeviation="2"/>
<feComposite in2="hardAlpha" operator="out"/>
<feColorMatrix type="matrix" values="0 0 0 0 0 0 0 0 0 0 0 0 0 0 0 0 0 0 0.25 0"/>
<feBlend mode="normal" in2="BackgroundImageFix" result="effect1_dropShadow_1_38"/>
<feBlend mode="normal" in="SourceGraphic" in2="effect1_dropShadow_1_38" result="shape"/>
</filter>
<filter id="filter12_d_1_38" x="585.577" y="21.7112" width="64.636" height="144.917" filterUnits="userSpaceOnUse" color-interpolation-filters="sRGB">
<feFlood flood-opacity="0" result="BackgroundImageFix"/>
<feColorMatrix in="SourceAlpha" type="matrix" values="0 0 0 0 0 0 0 0 0 0 0 0 0 0 0 0 0 0 127 0" result="hardAlpha"/>
<feOffset dy="4"/>
<feGaussianBlur stdDeviation="2"/>
<feComposite in2="hardAlpha" operator="out"/>
<feColorMatrix type="matrix" values="0 0 0 0 0 0 0 0 0 0 0 0 0 0 0 0 0 0 0.25 0"/>
<feBlend mode="normal" in2="BackgroundImageFix" result="effect1_dropShadow_1_38"/>
<feBlend mode="normal" in="SourceGraphic" in2="effect1_dropShadow_1_38" result="shape"/>
</filter>
<filter id="filter13_d_1_38" x="563.27" y="746.323" width="56.7157" height="147.736" filterUnits="userSpaceOnUse" color-interpolation-filters="sRGB">
<feFlood flood-opacity="0" result="BackgroundImageFix"/>
<feColorMatrix in="SourceAlpha" type="matrix" values="0 0 0 0 0 0 0 0 0 0 0 0 0 0 0 0 0 0 127 0" result="hardAlpha"/>
<feOffset dy="4"/>
<feGaussianBlur stdDeviation="2"/>
<feComposite in2="hardAlpha" operator="out"/>
<feColorMatrix type="matrix" values="0 0 0 0 0 0 0 0 0 0 0 0 0 0 0 0 0 0 0.25 0"/>
<feBlend mode="normal" in2="BackgroundImageFix" result="effect1_dropShadow_1_38"/>
<feBlend mode="normal" in="SourceGraphic" in2="effect1_dropShadow_1_38" result="shape"/>
</filter>
<filter id="filter14_d_1_38" x="694.507" y="209.748" width="157.85" height="93.8188" filterUnits="userSpaceOnUse" color-interpolation-filters="sRGB">
<feFlood flood-opacity="0" result="BackgroundImageFix"/>
<feColorMatrix in="SourceAlpha" type="matrix" values="0 0 0 0 0 0 0 0 0 0 0 0 0 0 0 0 0 0 127 0" result="hardAlpha"/>
<feOffset dy="4"/>
<feGaussianBlur stdDeviation="2"/>
<feComposite in2="hardAlpha" operator="out"/>
<feColorMatrix type="matrix" values="0 0 0 0 0 0 0 0 0 0 0 0 0 0 0 0 0 0 0.25 0"/>
<feBlend mode="normal" in2="BackgroundImageFix" result="effect1_dropShadow_1_38"/>
<feBlend mode="normal" in="SourceGraphic" in2="effect1_dropShadow_1_38" result="shape"/>
</filter>
<filter id="filter15_d_1_38" x="692.49" y="596.28" width="135.322" height="80.8494" filterUnits="userSpaceOnUse" color-interpolation-filters="sRGB">
<feFlood flood-opacity="0" result="BackgroundImageFix"/>
<feColorMatrix in="SourceAlpha" type="matrix" values="0 0 0 0 0 0 0 0 0 0 0 0 0 0 0 0 0 0 127 0" result="hardAlpha"/>
<feOffset dy="4"/>
<feGaussianBlur stdDeviation="2"/>
<feComposite in2="hardAlpha" operator="out"/>
<feColorMatrix type="matrix" values="0 0 0 0 0 0 0 0 0 0 0 0 0 0 0 0 0 0 0.25 0"/>
<feBlend mode="normal" in2="BackgroundImageFix" result="effect1_dropShadow_1_38"/>
<feBlend mode="normal" in="SourceGraphic" in2="effect1_dropShadow_1_38" result="shape"/>
</filter>
<filter id="filter16_d_1_38" x="301.034" y="72.3358" width="69.2507" height="122.493" filterUnits="userSpaceOnUse" color-interpolation-filters="sRGB">
<feFlood flood-opacity="0" result="BackgroundImageFix"/>
<feColorMatrix in="SourceAlpha" type="matrix" values="0 0 0 0 0 0 0 0 0 0 0 0 0 0 0 0 0 0 127 0" result="hardAlpha"/>
<feOffset dy="4"/>
<feGaussianBlur stdDeviation="2"/>
<feComposite in2="hardAlpha" operator="out"/>
<feColorMatrix type="matrix" values="0 0 0 0 0 0 0 0 0 0 0 0 0 0 0 0 0 0 0.25 0"/>
<feBlend mode="normal" in2="BackgroundImageFix" result="effect1_dropShadow_1_38"/>
<feBlend mode="normal" in="SourceGraphic" in2="effect1_dropShadow_1_38" result="shape"/>
</filter>
<filter id="filter17_d_1_38" x="329.336" y="765.611" width="48.7179" height="131.927" filterUnits="userSpaceOnUse" color-interpolation-filters="sRGB">
<feFlood flood-opacity="0" result="BackgroundImageFix"/>
<feColorMatrix in="SourceAlpha" type="matrix" values="0 0 0 0 0 0 0 0 0 0 0 0 0 0 0 0 0 0 127 0" result="hardAlpha"/>
<feOffset dy="4"/>
<feGaussianBlur stdDeviation="2"/>
<feComposite in2="hardAlpha" operator="out"/>
<feColorMatrix type="matrix" values="0 0 0 0 0 0 0 0 0 0 0 0 0 0 0 0 0 0 0.25 0"/>
<feBlend mode="normal" in2="BackgroundImageFix" result="effect1_dropShadow_1_38"/>
<feBlend mode="normal" in="SourceGraphic" in2="effect1_dropShadow_1_38" result="shape"/>
</filter>
<filter id="filter18_d_1_38" x="68.981" y="101.732" width="108.528" height="90.8792" filterUnits="userSpaceOnUse" color-interpolation-filters="sRGB">
<feFlood flood-opacity="0" result="BackgroundImageFix"/>
<feColorMatrix in="SourceAlpha" type="matrix" values="0 0 0 0 0 0 0 0 0 0 0 0 0 0 0 0 0 0 127 0" result="hardAlpha"/>
<feOffset dy="4"/>
<feGaussianBlur stdDeviation="2"/>
<feComposite in2="hardAlpha" operator="out"/>
<feColorMatrix type="matrix" values="0 0 0 0 0 0 0 0 0 0 0 0 0 0 0 0 0 0 0.25 0"/>
<feBlend mode="normal" in2="BackgroundImageFix" result="effect1_dropShadow_1_38"/>
<feBlend mode="normal" in="SourceGraphic" in2="effect1_dropShadow_1_38" result="shape"/>
</filter>
<filter id="filter19_d_1_38" x="76.2202" y="700.019" width="108.528" height="90.8792" filterUnits="userSpaceOnUse" color-interpolation-filters="sRGB">
<feFlood flood-opacity="0" result="BackgroundImageFix"/>
<feColorMatrix in="SourceAlpha" type="matrix" values="0 0 0 0 0 0 0 0 0 0 0 0 0 0 0 0 0 0 127 0" result="hardAlpha"/>
<feOffset dy="4"/>
<feGaussianBlur stdDeviation="2"/>
<feComposite in2="hardAlpha" operator="out"/>
<feColorMatrix type="matrix" values="0 0 0 0 0 0 0 0 0 0 0 0 0 0 0 0 0 0 0.25 0"/>
<feBlend mode="normal" in2="BackgroundImageFix" result="effect1_dropShadow_1_38"/>
<feBlend mode="normal" in="SourceGraphic" in2="effect1_dropShadow_1_38" result="shape"/>
</filter>
<clipPath id="clip0_1_38">
<rect width="930" height="930" fill="white"/>
</clipPath>
</defs>
</svg>
