<svg width="80" height="81" viewBox="0 0 80 81" fill="none" xmlns="http://www.w3.org/2000/svg">
<g filter="url(#filter0_d_109_828)">
<g clip-path="url(#clip0_109_828)">
<path d="M8 8.26608C8 6.05694 9.79086 4.26608 12 4.26608H68C70.2091 4.26608 72 6.05694 72 8.26608V64.2661C72 66.4752 70.2091 68.2661 68 68.2661H12C9.79086 68.2661 8 66.4752 8 64.2661V8.26608Z" fill="#12151C"/>
<path d="M8 8.26608C8 6.05694 9.79086 4.26608 12 4.26608H68C70.2091 4.26608 72 6.05694 72 8.26608V64.2661C72 66.4752 70.2091 68.2661 68 68.2661H12C9.79086 68.2661 8 66.4752 8 64.2661V8.26608Z" fill="#4338CA"/>
<path d="M8 8.26608C8 6.05694 9.79086 4.26608 12 4.26608H68C70.2091 4.26608 72 6.05694 72 8.26608V64.2661C72 66.4752 70.2091 68.2661 68 68.2661H12C9.79086 68.2661 8 66.4752 8 64.2661V8.26608Z" fill="url(#paint0_linear_109_828)" fill-opacity="0.5"/>
<ellipse cx="66.702" cy="6.69294" rx="20.6467" ry="21.1343" transform="rotate(15 66.702 6.69294)" fill="#312E81"/>
<ellipse cx="66.702" cy="6.69294" rx="20.6467" ry="21.1343" transform="rotate(15 66.702 6.69294)" fill="#312E81"/>
<ellipse cx="66.702" cy="6.69294" rx="20.6467" ry="21.1343" transform="rotate(15 66.702 6.69294)" fill="#312E81"/>
<ellipse cx="66.702" cy="6.69294" rx="20.6467" ry="21.1343" transform="rotate(15 66.702 6.69294)" fill="#312E81"/>
<path d="M36.3135 22.577C36.3135 28.03 31.8931 32.4505 26.4401 32.4505C20.9871 32.4505 16.5667 28.03 16.5667 22.577C16.5667 17.1241 20.9871 12.7036 26.4401 12.7036C31.8931 12.7036 36.3135 17.1241 36.3135 22.577Z" fill="white"/>
<path d="M67.1492 50.7255C67.1492 56.1784 62.7287 60.5989 57.2758 60.5989C51.8228 60.5989 47.4023 56.1784 47.4023 50.7255C47.4023 45.2725 51.8228 40.852 57.2758 40.852C62.7287 40.852 67.1492 45.2725 67.1492 50.7255Z" fill="white"/>
<path d="M48.9537 50.6979C46.6762 43.6257 35.6484 34.276 27.1154 31.4352L35.049 22.529C37.3466 31.7194 45.9596 40.5845 56.693 42.2175" stroke="white" stroke-width="3"/>
<path d="M64.6351 51.0186C64.6351 55.0829 61.3403 58.3777 57.276 58.3777C53.2118 58.3777 49.917 55.0829 49.917 51.0186C49.917 46.9543 53.2118 43.6596 57.276 43.6596C61.3403 43.6596 64.6351 46.9543 64.6351 51.0186Z" fill="#4338CA"/>
<path d="M50.6319 51.6568C49.7928 46.5025 48.5941 46.023 47.8749 44.3039L49.7928 42.427C52.3164 43.3412 55.1237 44.0504 56.9849 44.3039L50.6319 51.6568Z" fill="#4338CA" stroke="#4338CA"/>
<circle cx="57.276" cy="51.1034" r="4.87598" fill="#312E81"/>
<circle cx="57.276" cy="51.1034" r="4.87598" fill="#312E81"/>
<circle cx="57.276" cy="51.1034" r="4.87598" fill="#312E81"/>
<circle cx="57.276" cy="51.1034" r="4.87598" fill="#312E81"/>
</g>
<path d="M8.5 8.26608C8.5 6.33309 10.067 4.76608 12 4.76608H68C69.933 4.76608 71.5 6.33309 71.5 8.26608V64.2661C71.5 66.1991 69.933 67.7661 68 67.7661H12C10.067 67.7661 8.5 66.1991 8.5 64.2661V8.26608Z" stroke="#342BA8"/>
</g>
<defs>
<filter id="filter0_d_109_828" x="0" y="0.266083" width="80" height="80" filterUnits="userSpaceOnUse" color-interpolation-filters="sRGB">
<feFlood flood-opacity="0" result="BackgroundImageFix"/>
<feColorMatrix in="SourceAlpha" type="matrix" values="0 0 0 0 0 0 0 0 0 0 0 0 0 0 0 0 0 0 127 0" result="hardAlpha"/>
<feOffset dy="4"/>
<feGaussianBlur stdDeviation="4"/>
<feComposite in2="hardAlpha" operator="out"/>
<feColorMatrix type="matrix" values="0 0 0 0 0 0 0 0 0 0 0 0 0 0 0 0 0 0 0.25 0"/>
<feBlend mode="normal" in2="BackgroundImageFix" result="effect1_dropShadow_109_828"/>
<feBlend mode="normal" in="SourceGraphic" in2="effect1_dropShadow_109_828" result="shape"/>
</filter>
<linearGradient id="paint0_linear_109_828" x1="40" y1="4.26608" x2="40" y2="75.3694" gradientUnits="userSpaceOnUse">
<stop/>
<stop offset="0.0001" stop-opacity="0"/>
<stop offset="1"/>
</linearGradient>
<clipPath id="clip0_109_828">
<path d="M8 8.26608C8 6.05694 9.79086 4.26608 12 4.26608H68C70.2091 4.26608 72 6.05694 72 8.26608V64.2661C72 66.4752 70.2091 68.2661 68 68.2661H12C9.79086 68.2661 8 66.4752 8 64.2661V8.26608Z" fill="white"/>
</clipPath>
</defs>
</svg>
